<?xml version="1.0" encoding="iso-8859-1"?>
<!-- Uploaded to: SVG Repo, www.svgrepo.com, Generator: SVG Repo Mixer Tools -->
<svg version="1.1" id="Layer_1" xmlns="http://www.w3.org/2000/svg" xmlns:xlink="http://www.w3.org/1999/xlink" 
	 viewBox="0 0 512 512" xml:space="preserve">
<g transform="translate(1 1)">
	<g>
		<path style="fill:#FFE100;" d="M181.237,441.576c-3.471,0-6.942-1.736-7.81-5.207L43.258,123.963
			c-1.736-4.339,0-9.546,4.339-11.281c4.339-1.736,9.546,0,11.281,4.339l130.169,312.407c1.736,4.339,0,9.546-4.339,11.281
			C182.973,441.576,182.105,441.576,181.237,441.576z"/>
		<path style="fill:#FFE100;" d="M77.102,441.576c-0.868,0-2.603,0-3.471-0.868c-4.339-1.736-6.942-6.942-4.339-11.281
			L199.461,117.02c1.736-4.339,6.942-6.942,11.281-4.339c4.339,1.736,6.942,6.942,4.339,11.281L84.912,436.37
			C84.044,439.841,80.573,441.576,77.102,441.576z"/>
	</g>
	<g>
		<path style="fill:#00DA6C;" d="M59.746,94.458c0,14.753-11.281,26.034-26.034,26.034S7.678,109.21,7.678,94.458
			s11.281-26.034,26.034-26.034S59.746,79.705,59.746,94.458"/>
		<path style="fill:#00DA6C;" d="M181.237,94.458c0,14.753,11.281,26.034,26.034,26.034c14.753,0,26.034-11.281,26.034-26.034
			s-11.281-26.034-26.034-26.034C192.519,68.424,181.237,79.705,181.237,94.458"/>
	</g>
	<path style="fill:#FFE100;" d="M441.576,94.458v8.678c0,9.546-26.902,9.546-60.746,9.546s-60.746-7.81-60.746-17.356V68.424
		c-26.034,7.81-34.712,20.827-34.712,35.58c0,24.298,38.183,43.39,95.458,43.39s104.136,6.942,104.136-17.356
		C484.966,115.285,467.61,102.268,441.576,94.458"/>
	<path style="fill:#FFA800;" d="M450.254,67.556v26.902c0,0.868,0,1.736-0.868,2.603c17.356,6.075,29.505,14.753,33.844,25.166
		c6.942-6.075,10.414-12.149,10.414-19.092C493.644,88.383,476.288,76.234,450.254,67.556"/>
	<path style="fill:#FFFFFF;" d="M327.895,68.424v26.902c0,0.868,0,1.736,0.868,2.603c-17.356,6.075-29.505,14.753-33.844,25.166
		c-6.942-6.075-10.414-12.149-10.414-19.092C284.505,89.251,301.861,76.234,327.895,68.424"/>
	<path style="fill:#FECC00;" d="M424.22,42.39c0,14.753-26.902,26.034-60.746,26.034s-34.712-11.281-34.712-26.034
		s0.868-26.034,34.712-26.034S424.22,27.637,424.22,42.39"/>
	<path style="fill:#FFA800;" d="M389.508,16.356c-4.339,0-8.678,0-13.017,0.868c26.902,2.603,47.729,13.017,47.729,25.166
		s-20.827,22.563-47.729,25.166c4.339,0.868,8.678,0.868,13.017,0.868c33.844,0,60.746-11.281,60.746-26.034
		S423.353,16.356,389.508,16.356"/>
	<path style="fill:#FFFFFF;" d="M389.508,16.356c4.339,0,8.678,0,13.017,0.868c-26.902,2.603-47.729,13.017-47.729,25.166
		s20.827,22.563,47.729,25.166c-4.339,0.868-8.678,0.868-13.017,0.868c-33.844,0-60.746-11.281-60.746-26.034
		S355.664,16.356,389.508,16.356"/>
	<path style="fill:#FFE100;" d="M406.864,16.356c-4.339,0-8.678,0-13.017,0.868c26.902,2.603,47.729,13.017,47.729,25.166
		s-20.827,22.563-47.729,25.166c4.339,0.868,8.678,0.868,13.017,0.868c33.844,0,60.746-11.281,60.746-26.034
		S440.708,16.356,406.864,16.356"/>
	<g>
		<path style="fill:#FECC00;" d="M389.508,68.424c-33.844,0-60.746-11.281-60.746-26.034v52.068
			c0,9.546,26.902,17.356,60.746,17.356s60.746-7.81,60.746-17.356V42.39C450.254,57.142,423.353,68.424,389.508,68.424"/>
		<path style="fill:#FECC00;" d="M363.475,458.932c-22.563,0-17.356-3.471-34.712-7.81v25.166c0,9.546,0.868,17.356,34.712,17.356
			s60.746-7.81,60.746-17.356v-25.166C406.864,455.461,386.037,458.932,363.475,458.932"/>
	</g>
	<path style="fill:#FFA800;" d="M424.22,456.329v19.959c0,8.678-20.827,15.62-47.729,17.356c4.339,0,8.678,0,13.017,0
		c33.844,0,60.746-7.81,60.746-17.356v-25.166C442.444,452.858,433.766,454.593,424.22,456.329"/>
	<path style="fill:#FFFFFF;" d="M354.797,456.329v19.959c0,8.678,20.827,15.62,47.729,17.356c-4.339,0-8.678,0-13.017,0
		c-33.844,0-60.746-7.81-60.746-17.356v-25.166C336.573,452.858,345.251,454.593,354.797,456.329"/>
	<g>
		<path style="fill:#FFE100;" d="M441.576,456.329v19.959c0,8.678-20.827,15.62-47.729,17.356c4.339,0,8.678,0,13.017,0
			c33.844,0,60.746-7.81,60.746-17.356v-25.166C459.8,452.858,451.122,454.593,441.576,456.329"/>
		<path style="fill:#FFE100;" d="M467.61,415.542V103.136c0,24.298-20.827,43.39-78.102,43.39s-104.136-19.092-104.136-43.39
			v312.407c0,24.298,20.827,43.39,78.102,43.39S467.61,439.841,467.61,415.542"/>
	</g>
	<path style="fill:#FFA800;" d="M467.61,131.773v283.769c0,21.695-39.919,39.919-91.119,43.39c4.339,0,8.678,0,13.017,0
		c57.275,0,104.136-19.092,104.136-43.39V103.136C493.644,114.417,484.098,123.963,467.61,131.773"/>
	<path style="fill:#FFFFFF;" d="M311.407,131.773v283.769c0,21.695,39.919,39.919,91.119,43.39c-4.339,0-8.678,0-13.017,0
		c-57.275,0-104.136-19.092-104.136-43.39V103.136C285.373,114.417,294.919,123.963,311.407,131.773"/>
	<path style="fill:#FFE100;" d="M510.132,96.193C511,95.325,511,94.458,511,92.722c0-14.753-34.712-33.844-60.746-41.654v18.224
		c0,0.868,0,1.736-0.868,2.603c10.414,3.471,24.298,13.017,35.58,22.563v321.085c0,21.695-39.919,39.919-91.119,43.39
		c4.339,0,8.678,0,13.017,0c57.275,0,104.136-19.092,104.136-43.39V103.136C511,100.532,511,98.797,510.132,96.193"/>
	<path d="M33.712,129.169C14.62,129.169-1,113.549-1,94.458s15.62-34.712,34.712-34.712s34.712,15.62,34.712,34.712
		S52.803,129.169,33.712,129.169z M33.712,77.102c-9.546,0-17.356,7.81-17.356,17.356s7.81,17.356,17.356,17.356
		s17.356-7.81,17.356-17.356S43.258,77.102,33.712,77.102z"/>
	<path d="M172.559,441.576c-3.471,0-6.942-1.736-7.81-5.207L34.58,123.963c-1.736-4.339,0-9.546,4.339-11.281
		c4.339-1.736,9.546,0,11.281,4.339L180.37,429.427c1.736,4.339,0,9.546-4.339,11.281
		C174.295,441.576,173.427,441.576,172.559,441.576z"/>
	<path d="M389.508,467.61c-64.217,0-112.814-22.563-112.814-52.068V103.136h17.356c0,16.488,40.786,34.712,95.458,34.712
		s95.458-18.224,95.458-34.712h17.356v312.407C502.322,445.047,453.725,467.61,389.508,467.61z M294.051,131.773v283.769
		c0,16.488,40.786,34.712,95.458,34.712s95.458-18.224,95.458-34.712V131.773c-19.959,14.753-54.671,23.43-95.458,23.43
		S314.01,145.658,294.051,131.773z"/>
	<path d="M389.508,77.102c-34.712,0-69.424-12.149-69.424-34.712s34.712-34.712,69.424-34.712s69.424,12.149,69.424,34.712
		S424.22,77.102,389.508,77.102z M389.508,25.034c-32.108,0-52.068,11.281-52.068,17.356s19.959,17.356,52.068,17.356
		s52.068-11.281,52.068-17.356S421.617,25.034,389.508,25.034z"/>
	<path d="M389.508,120.492c-6.942,0-69.424-0.868-69.424-26.034V42.39h17.356c0,6.075,19.959,17.356,52.068,17.356
		s52.068-11.281,52.068-17.356h17.356v52.068C458.932,119.624,396.451,120.492,389.508,120.492z M337.441,93.59
		c3.471,3.471,21.695,9.546,52.068,9.546c30.373,0,48.597-6.075,52.068-9.546V65.82c-26.902,14.753-77.234,14.753-104.136,0V93.59z"
		/>
	<path d="M389.508,155.203c-64.217,0-112.814-22.563-112.814-52.068c0-18.224,18.224-33.844,49.464-43.39l11.281-3.471V93.59
		c3.471,3.471,21.695,9.546,52.068,9.546c30.373,0,48.597-6.075,52.068-9.546V56.275l11.281,3.471
		c31.241,9.546,49.464,25.166,49.464,43.39C502.322,132.641,453.725,155.203,389.508,155.203z M320.085,80.573
		c-16.488,6.942-26.034,14.753-26.034,22.563c0,16.488,40.786,34.712,95.458,34.712s95.458-18.224,95.458-34.712
		c0-7.81-9.546-16.488-26.034-22.563v13.885c0,25.166-62.481,26.034-69.424,26.034c-6.942,0-69.424-0.868-69.424-26.034V80.573z"/>
	
		<rect x="277.515" y="168.011" transform="matrix(-0.8638 0.5039 -0.5039 -0.8638 718.6667 159.0819)" width="120.628" height="17.357"/>
	
		<rect x="271.45" y="350.239" transform="matrix(-0.8791 0.4767 -0.4767 -0.8791 903.756 488.5682)" width="236.916" height="17.356"/>
	<rect x="380.831" y="163.881" transform="matrix(-0.28 0.96 -0.96 -0.28 760.0325 -25.3125)" width="17.356" height="216.949"/>
	
		<rect x="285.312" y="180.978" transform="matrix(-0.8436 0.537 -0.537 -0.8436 836.6262 135.6237)" width="226.498" height="17.356"/>
	
		<rect x="352.989" y="220.076" transform="matrix(-0.8574 0.5146 -0.5146 -0.8574 914.4036 204.1638)" width="151.86" height="17.355"/>
	
		<rect x="418.17" y="254.978" transform="matrix(-0.8478 0.5304 -0.5304 -0.8478 987.8828 243.7536)" width="81.576" height="17.357"/>
	
		<rect x="348.355" y="242.239" transform="matrix(-0.3032 0.9529 -0.9529 -0.3032 767.6518 73.2853)" width="17.355" height="150.125"/>
	
		<rect x="318.122" y="315.926" transform="matrix(-0.3127 0.9499 -0.9499 -0.3127 770.6989 161.8268)" width="17.357" height="87.651"/>
	
		<rect x="326.153" y="398.156" transform="matrix(-0.8742 0.4855 -0.4855 -0.8742 976.3275 560.7521)" width="178.76" height="17.355"/>
	<path d="M389.508,502.322c-6.942,0-69.424-0.868-69.424-26.034v-37.315l11.281,3.471c17.356,5.207,37.315,7.81,58.142,7.81
		c20.827,0,40.786-2.603,58.142-7.81l11.281-3.471v37.315C458.932,501.454,396.451,502.322,389.508,502.322z M337.441,475.42
		c3.471,3.471,21.695,9.546,52.068,9.546c30.373,0,48.597-6.075,52.068-9.546v-13.017c-32.108,6.942-72.027,6.942-104.136,0V475.42z
		"/>
	<path d="M207.271,129.169c-19.092,0-34.712-15.62-34.712-34.712s15.62-34.712,34.712-34.712s34.712,15.62,34.712,34.712
		S226.363,129.169,207.271,129.169z M207.271,77.102c-9.546,0-17.356,7.81-17.356,17.356s7.81,17.356,17.356,17.356
		c9.546,0,17.356-7.81,17.356-17.356S216.817,77.102,207.271,77.102z"/>
	<path d="M68.424,441.576c-0.868,0-2.603,0-3.471-0.868c-4.339-1.736-6.942-6.942-4.339-11.281L190.783,117.02
		c1.736-4.339,6.942-6.942,11.281-4.339c4.339,1.736,6.942,6.942,4.339,11.281L76.234,436.37
		C75.366,439.841,71.895,441.576,68.424,441.576z"/>
</g>
</svg>